<?xml version="1.0" encoding="UTF-8"?>
<svg version="1.1" xmlns="http://www.w3.org/2000/svg" width="50" height="57">
<path d="M0 0 C0.76171509 -0.00287018 1.52343018 -0.00574036 2.30822754 -0.00869751 C3.91529079 -0.01073484 5.52237902 -0.00522808 7.12939453 0.00732422 C9.5855264 0.02338373 12.04001289 0.00746554 14.49609375 -0.01171875 C16.05989946 -0.00973626 17.62370414 -0.00589246 19.1875 0 C19.91988892 -0.00607269 20.65227783 -0.01214539 21.40686035 -0.0184021 C24.56127157 0.02498561 26.78183744 0.22767213 29.57226562 1.75537109 C31.09375 3.3984375 31.09375 3.3984375 31.34375 6.0859375 C31.26125 6.8490625 31.17875 7.6121875 31.09375 8.3984375 C31.75375 8.3984375 32.41375 8.3984375 33.09375 8.3984375 C33.09375 9.3884375 33.09375 10.3784375 33.09375 11.3984375 C32.43375 11.3984375 31.77375 11.3984375 31.09375 11.3984375 C30.908125 13.1 30.908125 13.1 30.71875 14.8359375 C30.5125 16.0115625 30.30625 17.1871875 30.09375 18.3984375 C26.89631861 19.99715319 23.42315884 19.58265431 19.91015625 19.6015625 C18.69319313 19.61011261 18.69319313 19.61011261 17.4516449 19.61883545 C15.73429673 19.62828736 14.01693041 19.63482019 12.29956055 19.63867188 C9.67008951 19.64838637 7.04139717 19.67941068 4.41210938 19.7109375 C2.74479632 19.71746668 1.07747766 19.72271748 -0.58984375 19.7265625 C-1.77120155 19.7450827 -1.77120155 19.7450827 -2.97642517 19.76397705 C-8.37713369 19.74189781 -8.37713369 19.74189781 -10.86352539 18.12792969 C-11.90625 16.3984375 -11.90625 16.3984375 -12.90625 12.3984375 C-13.23625 15.3684375 -13.56625 18.3384375 -13.90625 21.3984375 C-13.25551514 21.38272705 -12.60478027 21.3670166 -11.93432617 21.35083008 C-8.98755576 21.28849101 -6.04092402 21.24945066 -3.09375 21.2109375 C-2.06958984 21.18580078 -1.04542969 21.16066406 0.00976562 21.13476562 C1.48413086 21.12026367 1.48413086 21.12026367 2.98828125 21.10546875 C3.89425049 21.0897583 4.80021973 21.07404785 5.73364258 21.05786133 C8.09375 21.3984375 8.09375 21.3984375 9.89453125 22.7890625 C12.08353568 25.72674922 11.26782274 28.85895838 11.09375 32.3984375 C12.41375 32.3984375 13.73375 32.3984375 15.09375 32.3984375 C15.09375 40.6484375 15.09375 48.8984375 15.09375 57.3984375 C11.46375 57.3984375 7.83375 57.3984375 4.09375 57.3984375 C4.09375 49.1484375 4.09375 40.8984375 4.09375 32.3984375 C5.41375 32.3984375 6.73375 32.3984375 8.09375 32.3984375 C7.76375 30.0884375 7.43375 27.7784375 7.09375 25.3984375 C6.43777832 25.37861816 5.78180664 25.35879883 5.10595703 25.33837891 C2.14313931 25.24331243 -0.81895532 25.13355998 -3.78125 25.0234375 C-4.81378906 24.9925 -5.84632812 24.9615625 -6.91015625 24.9296875 C-7.89628906 24.89101563 -8.88242188 24.85234375 -9.8984375 24.8125 C-10.80964355 24.7810791 -11.72084961 24.7496582 -12.65966797 24.71728516 C-14.90625 24.3984375 -14.90625 24.3984375 -16.90625 22.3984375 C-17.20703125 19.90234375 -17.20703125 19.90234375 -17.21875 16.9609375 C-17.23550781 15.99285156 -17.25226562 15.02476563 -17.26953125 14.02734375 C-16.90625 11.3984375 -16.90625 11.3984375 -15.51171875 9.55078125 C-13.90625 8.3984375 -13.90625 8.3984375 -11.90625 8.3984375 C-11.98875 7.6353125 -12.07125 6.8721875 -12.15625 6.0859375 C-11.90625 3.3984375 -11.90625 3.3984375 -10.38476562 1.75537109 C-6.9667631 -0.11591122 -3.79842895 -0.03149514 0 0 Z M-8.90625 4.3984375 C-9.00476171 6.22959633 -9.03597629 8.06463683 -9.03125 9.8984375 C-9.03382812 10.89875 -9.03640625 11.8990625 -9.0390625 12.9296875 C-9.18495382 15.34243372 -9.18495382 15.34243372 -7.90625 16.3984375 C-5.32435554 16.49935225 -2.769785 16.53815249 -0.1875 16.53125 C0.97211243 16.53268509 0.97211243 16.53268509 2.15515137 16.53414917 C3.79272544 16.53483091 5.43030219 16.53297707 7.06787109 16.52880859 C9.58306921 16.52346021 12.09808873 16.52875376 14.61328125 16.53515625 C16.20052123 16.53449547 17.7877611 16.5332143 19.375 16.53125 C20.13228394 16.53327423 20.88956787 16.53529846 21.6697998 16.53738403 C25.17390563 16.84297434 25.17390563 16.84297434 28.09375 15.3984375 C28.19226171 13.56727867 28.22347629 11.73223817 28.21875 9.8984375 C28.22132812 8.898125 28.22390625 7.8978125 28.2265625 6.8671875 C28.37245382 4.45444128 28.37245382 4.45444128 27.09375 3.3984375 C24.51185554 3.29752275 21.957285 3.25872251 19.375 3.265625 C18.60192505 3.26466827 17.8288501 3.26371155 17.03234863 3.26272583 C15.39477456 3.26204409 13.75719781 3.26389793 12.11962891 3.26806641 C9.60443079 3.27341479 7.08941127 3.26812124 4.57421875 3.26171875 C2.98697877 3.26237953 1.3997389 3.2636607 -0.1875 3.265625 C-0.94478394 3.26360077 -1.70206787 3.26157654 -2.4822998 3.25949097 C-5.98640563 2.95390066 -5.98640563 2.95390066 -8.90625 4.3984375 Z M7.09375 35.3984375 C7.09375 41.6684375 7.09375 47.9384375 7.09375 54.3984375 C8.74375 54.3984375 10.39375 54.3984375 12.09375 54.3984375 C12.09375 48.1284375 12.09375 41.8584375 12.09375 35.3984375 C10.44375 35.3984375 8.79375 35.3984375 7.09375 35.3984375 Z " fill="#F4511E" transform="translate(16.90625,-0.3984375)"/>
</svg>
