<?xml version="1.0" encoding="UTF-8"?>
<svg version="1.1" xmlns="http://www.w3.org/2000/svg" width="48" height="44">
<path d="M0 0 C4.62 0 9.24 0 14 0 C14 1.65 14 3.3 14 5 C19.61 5 25.22 5 31 5 C31 17.87 31 30.74 31 44 C15.16 44 -0.68 44 -17 44 C-17 31.13 -17 18.26 -17 5 C-11.39 5 -5.78 5 0 5 C0 3.35 0 1.7 0 0 Z M2 3 C2 3.66 2 4.32 2 5 C5.3 5 8.6 5 12 5 C12 4.34 12 3.68 12 3 C8.7 3 5.4 3 2 3 Z M-15 8 C-15 12.95 -15 17.9 -15 23 C-10.05 23 -5.1 23 0 23 C0 21.68 0 20.36 0 19 C4.62 19 9.24 19 14 19 C14 20.32 14 21.64 14 23 C18.95 23 23.9 23 29 23 C29 18.05 29 13.1 29 8 C14.48 8 -0.04 8 -15 8 Z M2 22 C2 23.65 2 25.3 2 27 C5.3 27 8.6 27 12 27 C12 25.35 12 23.7 12 22 C8.7 22 5.4 22 2 22 Z M-15 26 C-15 30.95 -15 35.9 -15 41 C-0.48 41 14.04 41 29 41 C29 36.05 29 31.1 29 26 C24.05 26 19.1 26 14 26 C14 27.32 14 28.64 14 30 C9.38 30 4.76 30 0 30 C0 28.68 0 27.36 0 26 C-4.95 26 -9.9 26 -15 26 Z " fill="#F4511E" transform="translate(17,0)"/>
</svg>
