<?xml version="1.0" encoding="UTF-8"?>
<svg version="1.1" xmlns="http://www.w3.org/2000/svg" width="60" height="27">
<path d="M0 0 C2.30093715 1.48999115 4.02070495 3.07018733 6 5 C6.33 4.34 6.66 3.68 7 3 C7.66 3 8.32 3 9 3 C9 5.64 9 8.28 9 11 C6.69 11 4.38 11 2 11 C2.33 9.68 2.66 8.36 3 7 C-1.91103834 3.67561825 -1.91103834 3.67561825 -7.6875 3 C-11.35531284 4.10726425 -12.80708853 4.87931829 -15 8 C-16.23946871 11.80103737 -16.19408217 13.49538636 -14.75 17.25 C-13.12940334 20.20562722 -13.12940334 20.20562722 -10 22 C-6.13022724 22.59030432 -3.55924617 22.93819049 -0.15625 20.890625 C2.56406085 18.56222334 5.02000069 16.01397854 7.50683594 13.44091797 C8.6191325 12.29255944 9.73455125 11.14721832 10.8527832 10.00463867 C11.96966271 8.85841376 13.07557131 7.70136697 14.16870117 6.5324707 C18.24391878 2.31164236 22.2026226 -0.63865786 28.2578125 -1.21484375 C32.92256228 -0.52196251 35.71471881 0.61809289 39 4 C41.6842174 8.47369567 41.91168699 12.91948791 41 18 C38.7316382 21.97857779 36.36503271 24.5449891 32 26 C26.59875652 26.34846732 23.37008646 26.47365846 19 23 C16.59817154 20.72936385 14.27718445 18.39530929 12 16 C12.33 15.34 12.66 14.68 13 14 C15.97906035 15.33410094 17.95787869 16.82175189 20.25 19.125 C22.8617867 21.40610984 24.63438186 22.48333177 28.125 22.6875 C32.79301212 21.8593043 34.25515116 20.82615293 37 17 C38.20100495 13.39698515 38.35238138 11.7974947 36.8125 8.3125 C34.19177683 4.96881871 32.47523879 3.30175339 28.25 2.4375 C20.22346481 3.82670801 14.11296014 11.68211219 8.6875 17.3125 C7.30029241 18.75066103 5.90856325 20.18447844 4.51171875 21.61328125 C3.90803467 22.24016846 3.30435059 22.86705566 2.68237305 23.51293945 C-0.48707305 26.3144336 -3.91662953 26.28228083 -8.0078125 26.21484375 C-12.07824537 25.7758755 -14.35943233 23.57131711 -17.3125 20.9375 C-19.78463654 16.6341512 -19.75370623 12.8485844 -19 8 C-17.12377877 3.8723133 -15.63710408 2.37981205 -11.75 0.0625 C-7.42298709 -1.16348699 -4.27308463 -1.45889152 0 0 Z " fill="#F4511E" transform="translate(19,1)"/>
</svg>
