<?xml version="1.0" encoding="UTF-8"?>
<svg version="1.1" xmlns="http://www.w3.org/2000/svg" width="29" height="45">
<path d="M0 0 C4.61384356 1.84553742 6.36646803 6.73293606 8.5 11 C8.63356742 14.72504684 8.74789419 18.44439483 8.75390625 22.171875 C8.94344173 28.23701037 10.37311846 30.61025976 14.5 35 C14.5 35.99 14.5 36.98 14.5 38 C10.045 38.495 10.045 38.495 5.5 39 C5.5 40.65 5.5 42.3 5.5 44 C4.51 44 3.52 44 2.5 44 C2.17 44.66 1.84 45.32 1.5 46 C0.51 46 -0.48 46 -1.5 46 C-1.83 45.34 -2.16 44.68 -2.5 44 C-3.49 44 -4.48 44 -5.5 44 C-5.5 42.35 -5.5 40.7 -5.5 39 C-8.47 38.67 -11.44 38.34 -14.5 38 C-13.57590749 34.30362995 -13.24570685 33.46517992 -10.96875 30.80859375 C-7.8750144 26.63805147 -7.91306405 23.11220621 -8 18.0625 C-7.71403058 3.08561223 -7.71403058 3.08561223 0 0 Z M-1.5 4 C-4.8598735 8.65213254 -5.6304308 12.56590312 -5.59765625 18.203125 C-5.59443359 19.1828125 -5.59121094 20.1625 -5.58789062 21.171875 C-5.57951172 22.18765625 -5.57113281 23.2034375 -5.5625 24.25 C-5.55798828 25.28125 -5.55347656 26.3125 -5.54882812 27.375 C-5.53706103 29.91669154 -5.5191261 32.45835318 -5.5 35 C-1.87 35 1.76 35 5.5 35 C5.60833518 31.14507317 5.68748693 27.29321662 5.75 23.4375 C5.78351562 22.35146484 5.81703125 21.26542969 5.8515625 20.14648438 C5.93241454 13.49640412 5.45054559 9.42033518 1.5 4 C0.51 4 -0.48 4 -1.5 4 Z M-8.5 32 C-9.49 33.485 -9.49 33.485 -10.5 35 C-9.51 35 -8.52 35 -7.5 35 C-7.83 34.01 -8.16 33.02 -8.5 32 Z M7.5 32 C7.83 32.99 8.16 33.98 8.5 35 C9.16 34.67 9.82 34.34 10.5 34 C9.51 33.34 8.52 32.68 7.5 32 Z " fill="#F4511E" transform="translate(14.5,-1)"/>
<path d="M0 0 C2.5 0.25 2.5 0.25 4.5 2.25 C4.625 4.875 4.625 4.875 4.5 7.25 C-0.125 9.375 -0.125 9.375 -3.5 8.25 C-4.125 5.375 -4.125 5.375 -4.5 2.25 C-2.5 0.25 -2.5 0.25 0 0 Z M-1.5 3.25 C-1.5 3.91 -1.5 4.57 -1.5 5.25 C-0.51 5.25 0.48 5.25 1.5 5.25 C1.5 4.59 1.5 3.93 1.5 3.25 C0.51 3.25 -0.48 3.25 -1.5 3.25 Z " fill="#F4511E" transform="translate(14.5,9.75)"/>
</svg>
